<svg xmlns="http://www.w3.org/2000/svg" width="260" height="42" viewBox="0 0 260 42" fill="none">
  <path d="M34.8871 39.8576H22.5328V20.6159C22.5328 18.5927 21.0692 17.3013 19.3043 17.3013C17.6255 17.3013 15.6023 18.6357 15.6023 20.6159V39.8576H4.49636V9.2086L0.923508 6.71191C5.01291 5.37747 11.8573 2.45032 15.6023 0.427137V16.5265C17.0659 14.7185 20.7248 12.394 25.2877 12.394C31.099 12.394 33.6387 16.1821 33.6387 20.702V36.9735C33.6387 37.404 34.0262 38.394 34.8871 39.8576ZM162.304 39.8576H149.95V20.6159C149.95 18.5927 148.486 17.3013 146.722 17.3013C145.043 17.3013 142.976 18.6357 142.976 20.6159V39.8576H131.871V9.2086L128.298 6.71191C132.387 5.37747 139.231 2.45032 142.976 0.427137V16.5265C144.44 14.7185 148.099 12.394 152.662 12.394C158.473 12.394 160.97 16.1821 160.97 20.702V36.9735C161.013 37.404 161.443 38.394 162.304 39.8576ZM61.9202 35.2947V37.2318C59.4665 39.298 56.7546 41.0199 50.9003 41.0199C41.6884 41.0199 36.0493 34.9503 36.0493 27.4603C36.0493 18.5497 41.8606 12.4371 50.3407 12.4371C58.7348 12.4371 61.9202 18.0761 61.9202 25.2218H46.5526C47.1983 33.4437 51.8904 37.1457 56.1089 37.1457C58.1752 37.1457 60.4566 36.4569 61.9202 35.2947ZM49.7811 23.5861C52.2348 23.5861 52.5361 22.8973 52.5361 20.8742C52.5361 19.3245 52.2348 15.4934 49.7811 15.4934C47.3275 15.4934 47.0262 19.3245 47.0262 20.8742C47.0262 22.8973 47.3275 23.5861 49.7811 23.5861ZM259.202 35.2516V37.1887C256.748 39.2549 254.036 40.9768 248.182 40.9768C238.97 40.9768 233.331 34.9073 233.331 27.4172C233.331 18.5066 239.142 12.394 247.622 12.394C256.016 12.394 259.202 18.0331 259.202 25.1788H243.834C244.48 33.4006 249.172 37.1026 253.39 37.1026C255.457 37.1457 257.781 36.4569 259.202 35.2516ZM247.106 23.5861C249.559 23.5861 249.861 22.8973 249.861 20.8742C249.861 19.3245 249.559 15.4934 247.106 15.4934C244.652 15.4934 244.351 19.3245 244.351 20.8742C244.351 22.8973 244.609 23.5861 247.106 23.5861ZM93.2579 35.0364L94.4632 35.2947C93.9036 37.5331 92.2679 40.9768 87.0162 40.9768C82.6255 40.9768 81.3771 38.3079 80.4732 35.5099C79.6983 38.0927 76.6851 40.9768 70.9599 40.9768C65.8374 40.9768 63.0394 38.7384 63.0394 34.5199C63.0394 29.8278 67.6884 26.4271 79.2679 23.0265V18.0761C79.2679 15.5364 77.8904 14.6324 76.3407 14.6324C74.9632 14.6324 72.7679 16.096 72.7679 18.3775C72.7679 19.4536 72.9831 20.3146 73.1122 21.3907C73.1122 22.8112 71.4765 24.9205 68.9798 24.9205C66.2248 24.9205 64.8904 22.9404 64.8904 20.6589C64.8904 16.9139 68.4202 12.351 77.6752 12.351C87.2745 12.351 90.3308 17.3444 90.3308 22.1225V34.7781C90.3308 35.553 90.6321 36.3278 91.493 36.3278C92.354 36.4139 92.8705 35.9834 93.2579 35.0364ZM79.354 34.0894V24.6622C75.4798 26.2119 74.1023 30.043 74.1023 32.9702C74.1023 35.3377 74.8341 36.4139 76.642 36.4139C78.2348 36.4569 79.354 35.4669 79.354 34.0894ZM109.142 39.8576H96.4003V9.2086L92.9997 6.71191C96.8738 5.37747 104.02 2.45032 107.592 0.427137V36.9305C107.549 37.3609 108.066 38.351 109.142 39.8576ZM179.049 39.8576H166.308V9.2086L162.907 6.71191C166.781 5.37747 173.927 2.45032 177.5 0.427137V36.9305C177.457 37.3609 178.016 38.351 179.049 39.8576ZM128.298 36.6722V38.6093C126.447 40.1589 123.347 41.0199 120.033 41.0199C114.566 41.0199 112.629 37.0165 112.629 33.6589V15.6225H110.003L123.907 3.65561V13.5132H128.298V15.6225H123.907V35.1656C123.907 36.7152 124.854 37.447 125.973 37.447C126.619 37.404 127.824 37.1026 128.298 36.6722ZM189.682 12.0066C186.539 12.0066 184 9.42383 184 6.19535C184 2.96688 186.496 0.384094 189.682 0.384094C192.824 0.384094 195.364 2.96688 195.364 6.19535C195.364 9.42383 192.824 12.0066 189.682 12.0066ZM197.129 39.8576H184.086V20.5298L180.513 18.0331C184.602 16.6987 191.49 13.7715 195.235 11.7483V36.8874C195.235 37.404 195.88 38.394 197.129 39.8576ZM232.47 39.8576H219.728V20.5298C219.728 18.5066 218.265 17.2152 216.5 17.2152C214.821 17.2152 212.798 18.5497 212.798 20.5298V39.8576H201.692V20.5298L198.119 18.0331C202.208 16.6987 208.751 13.7715 212.496 11.7483V17.043C214.347 14.6324 217.877 12.2649 222.483 12.2649C228.294 12.2649 230.791 16.053 230.791 20.5728V36.8874C230.834 37.3609 231.394 38.351 232.47 39.8576Z" fill="black"/>
</svg>