<svg xmlns="http://www.w3.org/2000/svg" width="39" height="29" viewBox="0 0 39 29" fill="none">
  <path d="M8.39627 29C6.26029 29 4.32686 28.2252 2.59598 26.6756C0.865103 25.126 -0.000335693 22.6908 -0.000335693 19.3702C-0.000335693 16.5293 0.478418 13.8728 1.43593 11.4008C2.43026 8.92875 3.75604 6.73346 5.41326 4.81489C7.10731 2.85941 8.9855 1.25445 11.0478 0L14.2518 1.6603C13.5889 2.25064 12.7971 3.15458 11.8764 4.37214C10.9558 5.5528 10.1087 6.95483 9.33536 8.57824C8.59881 10.2017 8.1753 11.9542 8.06482 13.8359C10.2376 13.9466 12.0606 14.666 13.5337 15.9943C15.0436 17.3225 15.7985 19.0382 15.7985 21.1412C15.7985 23.5763 15.062 25.4949 13.5889 26.8969C12.1158 28.299 10.3849 29 8.39627 29ZM31.4869 29C29.3878 29 27.4728 28.2252 25.7419 26.6756C24.0478 25.126 23.2008 22.6908 23.2008 19.3702C23.2008 16.5293 23.6796 13.8728 24.6371 11.4008C25.6314 8.92875 26.9572 6.73346 28.6144 4.81489C30.2716 2.85941 32.113 1.25445 34.1385 0L37.3424 1.6603C36.6796 2.25064 35.8878 3.15458 34.9671 4.37214C34.0464 5.5528 33.2178 6.95483 32.4813 8.57824C31.7815 10.2017 31.3764 11.9542 31.266 13.8359C33.3651 13.9466 35.1696 14.666 36.6796 15.9943C38.2263 17.3225 38.9997 19.0382 38.9997 21.1412C38.9997 23.5763 38.2447 25.4949 36.7348 26.8969C35.2249 28.299 33.4756 29 31.4869 29Z" fill="#1C1C1C"/>
</svg>