<svg xmlns="http://www.w3.org/2000/svg" width="19" height="18" viewBox="0 0 19 18" fill="none">
  <path d="M6.53035 5.53433L1.21368 6.30516L1.11952 6.32433C0.976965 6.36217 0.847011 6.43717 0.742925 6.54166C0.63884 6.64615 0.564351 6.7764 0.527067 6.9191C0.489783 7.0618 0.491038 7.21183 0.530705 7.35389C0.570372 7.49594 0.647029 7.62492 0.752849 7.72766L4.60452 11.4768L3.69618 16.7727L3.68535 16.8643C3.67662 17.0118 3.70724 17.1589 3.77406 17.2906C3.84088 17.4223 3.9415 17.5339 4.06563 17.6139C4.18975 17.694 4.33292 17.7396 4.48047 17.7461C4.62802 17.7526 4.77465 17.7198 4.90535 17.651L9.66035 15.151L14.4045 17.651L14.4878 17.6893C14.6254 17.7435 14.7749 17.7601 14.921 17.7375C15.0671 17.7148 15.2045 17.6537 15.3192 17.5604C15.4339 17.4671 15.5216 17.345 15.5735 17.2065C15.6254 17.0681 15.6396 16.9184 15.6145 16.7727L14.7053 11.4768L18.5587 7.72683L18.6237 7.65599C18.7165 7.54163 18.7774 7.4047 18.8001 7.25916C18.8228 7.11361 18.8065 6.96464 18.7529 6.82744C18.6993 6.69023 18.6103 6.56969 18.4949 6.47809C18.3796 6.38649 18.242 6.32711 18.0962 6.30599L12.7795 5.53433L10.4028 0.71766C10.3341 0.578105 10.2276 0.460589 10.0955 0.378414C9.9634 0.296238 9.81093 0.252686 9.65535 0.252686C9.49977 0.252686 9.3473 0.296238 9.21519 0.378414C9.08309 0.460589 8.97662 0.578105 8.90785 0.71766L6.53035 5.53433Z" fill="black"/>
</svg>