<svg width="19" height="18" viewBox="0 0 19 18" fill="none" xmlns="http://www.w3.org/2000/svg">
<path d="M2.74966 9C2.74966 9.88642 2.92426 10.7642 3.26348 11.5831C3.6027 12.4021 4.0999 13.1462 4.72669 13.773C5.35349 14.3998 6.0976 14.897 6.91655 15.2362C7.7355 15.5754 8.61324 15.75 9.49966 15.75C10.3861 15.75 11.2638 15.5754 12.0828 15.2362C12.9017 14.897 13.6458 14.3998 14.2726 13.773C14.8994 13.1462 15.3966 12.4021 15.7359 11.5831C16.0751 10.7642 16.2497 9.88642 16.2497 9C16.2497 7.20979 15.5385 5.4929 14.2726 4.22703C13.0068 2.96116 11.2899 2.25 9.49966 2.25C7.70945 2.25 5.99256 2.96116 4.72669 4.22703C3.46082 5.4929 2.74966 7.20979 2.74966 9Z" stroke="white" stroke-width="1.5" stroke-linecap="round" stroke-linejoin="round"/>
<path d="M9.49966 5.25V9L11.7497 11.25" stroke="white" stroke-width="1.5" stroke-linecap="round" stroke-linejoin="round"/>
</svg>
