<svg width="33" height="32" viewBox="0 0 33 32" fill="none" xmlns="http://www.w3.org/2000/svg">
<path id="iconGiftBold" d="M3.38361 14.7548C2.90321 14.7785 2.42282 14.8032 1.94242 14.8288C1.85882 14.8337 1.78058 14.8225 1.7101 14.797C1.69369 14.8083 1.67663 14.8189 1.65896 14.8286L1.61715 14.7523L1.65896 14.8286C1.52463 14.9022 1.36652 14.9195 1.21944 14.8766L1.21123 14.8742L1.21128 14.8741C1.06972 14.8269 0.951204 14.728 0.879462 14.5972C0.809838 14.4702 0.789251 14.3223 0.821314 14.1814C1.06334 12.4844 1.10489 10.7648 0.945079 9.05805M3.38361 14.7548L4.29791 31.3863C12.9412 30.5889 21.636 30.5138 30.2918 31.1618C30.2975 31.1622 30.3031 31.1624 30.3087 31.1624C30.622 31.1624 30.8143 30.9496 30.8608 30.7144C30.8977 30.5271 30.8461 30.3046 30.6856 30.1574C29.7831 25.023 29.1743 19.8414 28.8623 14.6376C28.8613 14.554 28.844 14.4775 28.8134 14.4098C29.6893 14.4292 30.5651 14.4518 31.4409 14.4776L31.4409 14.4777H31.4475C31.6538 14.4777 31.8133 14.3824 31.9089 14.2435C31.9506 14.2189 31.9894 14.189 32.0242 14.1541C32.1326 14.0458 32.1934 13.8989 32.1934 13.7457C32.1934 13.7368 32.1929 13.728 32.1919 13.7192L31.638 9.01115C31.6523 8.96052 31.6597 8.90774 31.6597 8.8542C31.6597 8.70101 31.5989 8.55407 31.4905 8.44572C31.3827 8.33789 31.2366 8.2771 31.0842 8.27653C29.4065 8.24775 27.7285 8.22483 26.0503 8.20778C26.707 7.11794 27.3894 5.45372 27.511 3.97728C27.5787 3.15476 27.4751 2.3565 27.0586 1.75068C26.6337 1.13261 25.9135 0.757739 24.8472 0.728425L24.8472 0.728111L24.8353 0.728411C23.0928 0.772279 21.3832 1.21268 19.8364 2.01612C18.7935 2.49012 17.8511 3.14932 17.0525 3.95707C16.2768 3.1381 15.3568 2.46103 14.3332 1.96268C12.717 1.06443 10.8956 0.600399 9.04669 0.615843C8.16146 0.571476 7.28694 0.826045 6.56376 1.33875C5.83869 1.85279 5.30812 2.59628 5.05777 3.44909C5.05492 3.45878 5.05273 3.46864 5.05121 3.47862C4.90314 4.4468 4.99032 5.43639 5.30537 6.36377C5.54265 7.06219 5.9039 7.70987 6.3699 8.27655C4.76726 8.304 3.16437 8.3368 1.56124 8.37492C1.34306 8.37591 1.17944 8.48609 1.08763 8.63789C0.984056 8.74233 0.929213 8.88881 0.945079 9.05805M3.38361 14.7548C3.37953 14.7805 3.37699 14.8069 3.3761 14.834M3.38361 14.7548L3.3761 14.834M0.945079 9.05805L1.17036 9.03696M0.945079 9.05805L1.17036 9.03696M1.17036 9.03696C1.15952 8.92133 1.2007 8.83542 1.26787 8.77924L1.04384 14.2237C1.28968 12.5057 1.33215 10.7648 1.17036 9.03696ZM3.3761 14.834C3.16259 20.136 3.26583 25.4459 3.68527 30.7356M3.3761 14.834L4.29758 31.3864C4.13241 31.4018 3.98628 31.35 3.88017 31.2462C3.78891 31.157 3.73967 31.0419 3.72152 30.9299M3.68527 30.7356C3.68635 30.8041 3.69864 30.8694 3.72152 30.9299M3.68527 30.7356C3.68522 30.7323 3.68519 30.729 3.68519 30.7256H3.91146L3.6859 30.7435C3.68569 30.7409 3.68548 30.7382 3.68527 30.7356ZM3.72152 30.9299C3.71957 30.9178 3.71797 30.9058 3.71673 30.8939L3.94177 30.8704L3.73637 30.9653C3.73101 30.9537 3.72606 30.9419 3.72152 30.9299ZM16.8081 14.3463C20.4576 14.3041 24.107 14.3179 27.7565 14.3879C27.7192 14.4672 27.7013 14.5586 27.7074 14.6582C27.7708 15.753 27.8472 16.8468 27.9367 17.9395C24.2708 17.7817 20.605 17.6917 16.9392 17.6696L16.8081 14.3463ZM4.5313 14.8422C4.5313 14.7927 4.52577 14.7455 4.51522 14.7009C8.22782 14.5297 11.9404 14.4166 15.653 14.3616L15.7833 17.6649C12.0036 17.6568 8.22385 17.7208 4.44412 17.857C4.46178 16.8549 4.49078 15.853 4.53112 14.8513L4.5313 14.8513V14.8422ZM7.82491 8.25309C7.81438 8.20792 7.79794 8.16307 7.77497 8.11944C7.7878 8.04494 7.76257 7.96757 7.70548 7.91485C7.09956 7.35521 6.64884 6.64823 6.3972 5.86273C6.14691 5.08145 6.10203 4.24896 6.26678 3.44545C6.53107 2.66515 7.08519 2.20052 7.77257 1.94702C8.47113 1.6894 9.30382 1.65267 10.0843 1.74164C11.6443 1.92372 13.1408 2.46496 14.4564 3.32284L14.4564 3.32289L14.4606 3.32551C14.8556 3.57089 15.6531 4.1249 16.3273 4.7822C16.197 4.94934 16.0721 5.12121 15.9529 5.29756C15.6334 5.76918 15.3836 6.52119 15.4278 7.18252C15.4501 7.51665 15.5491 7.84783 15.7747 8.10407C15.7968 8.12915 15.8199 8.15327 15.8439 8.1764C13.1716 8.18711 10.4986 8.21267 7.82491 8.25309ZM24.7245 8.19553C22.4762 8.17683 20.2274 8.16865 17.9781 8.17101C18.1977 7.97382 18.3442 7.71789 18.4311 7.44285C18.6284 6.81769 18.5306 6.05601 18.2379 5.50158C18.2356 5.49707 18.233 5.49265 18.2304 5.48832C18.0979 5.27384 17.9573 5.0653 17.8089 4.86308C18.1758 4.49485 18.5771 4.16194 19.0078 3.86906C20.242 3.04295 21.6167 2.44916 23.0643 2.11692L23.0665 2.1164C23.7663 1.94846 24.6217 1.8131 25.2893 1.96092C25.6176 2.03362 25.8837 2.17119 26.068 2.39147C26.2507 2.60965 26.3743 2.93417 26.3718 3.42276C26.2981 5.06836 25.7564 6.6588 24.8104 8.00734L24.8103 8.00731L24.8074 8.01178C24.7677 8.07129 24.7402 8.13318 24.7245 8.19553ZM28.0366 19.0996C28.3649 22.7315 28.8373 26.3494 29.4528 29.9448C25.4415 29.6671 21.4226 29.5441 17.4049 29.5757C17.4065 29.5543 17.407 29.5323 17.4063 29.5098L17.4062 29.5079L16.9848 18.8252C20.6687 18.8481 24.3526 18.9395 28.0366 19.0996ZM16.6898 6.33484L16.69 6.33493L16.694 6.32692C16.8077 6.09976 16.9408 5.88316 17.0919 5.67953C17.2599 5.93492 17.3744 6.18196 17.4197 6.41155C17.4766 6.70011 17.4257 6.96242 17.2206 7.20153C17.0739 7.36767 16.9751 7.38335 16.912 7.37074C16.832 7.35473 16.7088 7.27651 16.5531 7.05447C16.5212 6.80657 16.5688 6.55447 16.6898 6.33484ZM4.79929 30.1838C4.51911 26.4665 4.39554 22.7397 4.42877 19.0132C8.22882 18.8759 12.0289 18.8116 15.8289 18.8203L16.2511 29.5217C16.2512 29.5448 16.2526 29.5672 16.2552 29.589C12.4321 29.6472 8.61088 29.8455 4.79929 30.1838ZM30.9851 13.309C21.3301 13.0368 11.6841 13.1563 2.04702 13.6672C2.20563 12.29 2.23657 10.9008 2.13934 9.51738C11.5936 9.30823 21.0564 9.27682 30.528 9.42314L30.9851 13.309Z" fill="#272727" stroke="#272727" stroke-width="0.452541" stroke-linejoin="round"/>
</svg>
