<svg xmlns="http://www.w3.org/2000/svg" width="21" height="20" viewBox="0 0 21 20" fill="none">
    <path d="M7.67924 6.11666L2.36258 6.8875L2.26841 6.90666C2.12586 6.94451 1.99591 7.0195 1.89182 7.124C1.78774 7.22849 1.71325 7.35874 1.67596 7.50143C1.63868 7.64413 1.63993 7.79417 1.6796 7.93622C1.71927 8.07828 1.79592 8.20726 1.90174 8.31L5.75341 12.0592L4.84508 17.355L4.83424 17.4467C4.82552 17.5941 4.85613 17.7412 4.92295 17.8729C4.98977 18.0046 5.0904 18.1162 5.21452 18.1963C5.33865 18.2763 5.48182 18.3219 5.62937 18.3284C5.77692 18.3349 5.92355 18.3021 6.05424 18.2333L10.8092 15.7333L15.5534 18.2333L15.6367 18.2717C15.7743 18.3258 15.9238 18.3425 16.0699 18.3198C16.216 18.2971 16.3534 18.236 16.4681 18.1427C16.5827 18.0494 16.6705 17.9273 16.7224 17.7889C16.7743 17.6504 16.7885 17.5007 16.7634 17.355L15.8542 12.0592L19.7076 8.30916L19.7726 8.23833C19.8654 8.12397 19.9263 7.98704 19.949 7.84149C19.9717 7.69594 19.9554 7.54698 19.9018 7.40977C19.8482 7.27257 19.7592 7.15202 19.6438 7.06042C19.5285 6.96883 19.3909 6.90944 19.2451 6.88833L13.9284 6.11666L11.5517 1.3C11.483 1.16044 11.3765 1.04293 11.2444 0.96075C11.1123 0.878575 10.9598 0.835022 10.8042 0.835022C10.6487 0.835022 10.4962 0.878575 10.3641 0.96075C10.232 1.04293 10.1255 1.16044 10.0567 1.3L7.67924 6.11666Z" fill="#A6A6A6"/>
</svg>