<svg width="37" height="34" viewBox="0 0 37 34" fill="none" xmlns="http://www.w3.org/2000/svg">
<path id="iconStarBold" d="M13.1111 11.2428H1.21935C1.12341 11.2428 1.02996 11.2667 0.946897 11.3111C0.761041 11.3585 0.601279 11.4914 0.525416 11.6602C0.483145 11.7542 0.464559 11.8655 0.490554 11.9804C0.516889 12.0967 0.584866 12.1985 0.684435 12.2781C4.11025 15.0188 7.45134 17.8307 10.7077 20.7139L7.46736 32.3378C7.46511 32.3459 7.4633 32.3541 7.46196 32.3625C7.44345 32.4769 7.45986 32.5936 7.50809 32.6976C7.48361 32.8355 7.50988 32.9781 7.58278 33.0987C7.6623 33.2302 7.79082 33.3247 7.94002 33.3615C8.08855 33.3981 8.2455 33.3745 8.37667 33.2958C11.8682 31.255 15.2303 29.0006 18.4439 26.5457C21.8575 28.9478 25.3694 31.189 28.9798 33.2691C28.983 33.2709 28.9861 33.2726 28.9894 33.2742C28.9927 33.276 28.9961 33.2776 28.9996 33.2792C29.0165 33.2868 29.0336 33.2936 29.051 33.2995C29.1577 33.3986 29.298 33.4539 29.4441 33.4539C29.5973 33.4539 29.7442 33.393 29.8526 33.2847C29.9609 33.1764 30.0218 33.0295 30.0218 32.8762L30.0218 32.8754C30.0075 28.7723 29.3285 24.6992 28.0116 20.8143L36.3506 12.5433L36.3513 12.5427C36.4569 12.437 36.5141 12.3089 36.5207 12.175C36.526 12.0674 36.4983 11.9666 36.4516 11.8808C36.4321 11.7626 36.376 11.6525 36.2902 11.5666C36.1818 11.4583 36.0349 11.3974 35.8817 11.3974L35.8812 11.3974C32.0038 11.4064 28.1294 11.1922 24.2771 10.7561C24.1729 10.6565 24.0351 10.5994 23.8909 10.5963L23.8064 10.5877C23.2206 7.1712 22.0519 3.87988 20.3503 0.85789C20.3461 0.85027 20.3413 0.842905 20.3362 0.835832C20.3276 0.82404 20.3186 0.812611 20.3092 0.801562C20.2061 0.655799 20.0349 0.564712 19.8597 0.548748C19.6696 0.531426 19.4635 0.601891 19.3237 0.793297L19.3217 0.796068C16.9773 4.10787 14.9006 7.60117 13.1111 11.2428ZM14.2175 11.6273C15.8344 8.34859 17.686 5.19136 19.7577 2.18018C21.1209 4.78341 22.0847 7.5772 22.6165 10.4677L20.8366 10.288C20.8262 10.287 20.8157 10.2866 20.8053 10.287C20.6562 10.2927 20.5147 10.3544 20.4093 10.4599C20.3038 10.5654 20.242 10.7069 20.2363 10.856L20.2362 10.856V10.8646C20.2362 11.0178 20.2971 11.1647 20.4054 11.273L20.5654 11.113L20.4054 11.273C20.5107 11.3783 20.6525 11.4388 20.8011 11.4421L23.1345 11.6776C23.2234 11.7555 23.3387 11.8072 23.4738 11.8205C27.2001 12.2706 30.9481 12.5136 34.7006 12.5486L26.9125 20.2733C26.9119 20.2738 26.9114 20.2744 26.9108 20.2749C26.7874 20.3938 26.7314 20.5431 26.7396 20.6935C26.7464 20.8187 26.7966 20.932 26.8674 21.0217C28.0689 24.5159 28.7366 28.1694 28.8494 31.8593C25.4207 29.8444 22.0739 27.6904 18.8089 25.3971C18.7459 25.3513 18.6774 25.3188 18.6054 25.3021C18.4448 25.2312 18.256 25.2468 18.0902 25.3728L18.0895 25.3733C15.1307 27.6402 12.048 29.7401 8.85581 31.6633L11.7148 21.591L14.2642 23.7515C14.3162 23.8031 14.3777 23.8444 14.4452 23.8731C14.5166 23.9035 14.5934 23.9191 14.6711 23.9191C14.7487 23.9191 14.8256 23.9035 14.8971 23.8731C14.9686 23.8427 15.0332 23.7982 15.087 23.7423L15.0871 23.7424L15.0914 23.7376C15.1906 23.6287 15.2456 23.4867 15.2456 23.3393C15.2456 23.192 15.1906 23.05 15.0914 22.941C15.0848 22.9337 15.0776 22.9268 15.07 22.9204L11.8099 20.1692C11.7905 20.1453 11.769 20.1226 11.7457 20.1012L11.744 20.0998C8.7944 17.4484 5.77523 14.8812 2.68654 12.3981H13.6731C13.8263 12.3981 13.9732 12.3372 14.0816 12.2289C14.1899 12.1206 14.2508 11.9737 14.2508 11.8205C14.2508 11.754 14.2393 11.6887 14.2175 11.6273Z" fill="#272727" stroke="#272727" stroke-width="0.452541" stroke-linejoin="round"/>
</svg>
